<svg xmlns="http://www.w3.org/2000/svg" viewBox="0 0 158.95 163.24"><defs><style>.cls-1{fill:#8eb2b2;}.cls-2{fill:#e5e5e5;}.cls-3{fill:#fff;}.cls-4{fill:#c64f3c;}.cls-5{fill:#d3583c;}.cls-6{fill:#63615d;}.cls-7{font-size:18px;}.cls-10,.cls-7{font-family:ArialRoundedMTBold, Arial Rounded MT Bold;}.cls-8{letter-spacing:-0.04em;}.cls-9{letter-spacing:-0.06em;}.cls-10{font-size:25px;}</style></defs><g id="Warstwa_2" data-name="Warstwa 2"><path class="cls-1" d="M144.61,81.62a64.68,64.68,0,1,1-6.73-28.78A64.73,64.73,0,0,1,144.61,81.62Z"/><path class="cls-2" d="M112.9,51.44v60.13a5.91,5.91,0,0,1-5.9,5.91H52.76a5.9,5.9,0,0,1-4.86-2.56,6,6,0,0,1-.5-.89,5.79,5.79,0,0,1-.54-2.46V51.44Z"/><path class="cls-3" d="M112.9,51.44V107.1a5.7,5.7,0,0,1-5.9,5.47H52.76a6.06,6.06,0,0,1-4.86-2.37,5.28,5.28,0,0,1-.5-.82,5,5,0,0,1-.54-2.28V51.44Z"/><rect class="cls-4" x="46.86" y="54.11" width="66.04" height="15.38"/><path class="cls-5" d="M112.9,48.8V65.32h-66V48.8a5.9,5.9,0,0,1,5.9-5.9H107a6,6,0,0,1,1.41.17,4.76,4.76,0,0,1,.9.3A5.89,5.89,0,0,1,112.9,48.8Z"/><rect class="cls-6" x="62.93" y="35.14" width="5.62" height="13.85" rx="2.51"/><rect class="cls-6" x="77.48" y="35.14" width="5.62" height="13.85" rx="2.51"/><rect class="cls-6" x="92.02" y="35.14" width="5.62" height="13.85" rx="2.51"/><text class="cls-7" transform="translate(61.44 107.24)"><tspan class="cls-8">D</tspan><tspan class="cls-9" x="12.64" y="0">A</tspan><tspan x="24.45" y="0">Y</tspan></text><text/><text class="cls-10" transform="translate(71.86 89.92)">1</text></g></svg>