<svg xmlns="http://www.w3.org/2000/svg" viewBox="0 0 158.95 163.24"><defs><style>.cls-1{fill:#8eb2b2;}.cls-2{fill:#e5e5e5;}.cls-3{fill:#fff;}.cls-4{fill:#c64f3c;}.cls-5{fill:#d3583c;}.cls-6{fill:#63615d;}.cls-7{font-size:15px;}.cls-7,.cls-8{font-family:ArialRoundedMTBold, Arial Rounded MT Bold;}.cls-8{font-size:25px;}</style></defs><g id="Warstwa_2" data-name="Warstwa 2"><path class="cls-1" d="M144.2,81.62a64.68,64.68,0,1,1-6.73-28.78A64.73,64.73,0,0,1,144.2,81.62Z"/><path class="cls-2" d="M112.49,51.44v60.13a5.91,5.91,0,0,1-5.9,5.91H52.35a5.86,5.86,0,0,1-4.85-2.56A5.25,5.25,0,0,1,47,114a5.79,5.79,0,0,1-.54-2.46V51.44Z"/><path class="cls-3" d="M112.49,51.44V107.1a5.7,5.7,0,0,1-5.9,5.47H52.35a6,6,0,0,1-4.85-2.37,4.67,4.67,0,0,1-.51-.82,5,5,0,0,1-.54-2.28V51.44Z"/><rect class="cls-4" x="46.45" y="54.11" width="66.04" height="15.38"/><path class="cls-5" d="M112.49,48.8V65.32h-66V48.8a5.9,5.9,0,0,1,5.9-5.9h54.24a5.92,5.92,0,0,1,1.41.17,4.76,4.76,0,0,1,.9.3A5.89,5.89,0,0,1,112.49,48.8Z"/><rect class="cls-6" x="62.52" y="35.14" width="5.62" height="13.85" rx="2.51"/><rect class="cls-6" x="77.07" y="35.14" width="5.62" height="13.85" rx="2.51"/><rect class="cls-6" x="91.62" y="35.14" width="5.62" height="13.85" rx="2.51"/><text class="cls-7" transform="translate(58.41 107.24)">YEAR</text><text class="cls-8" transform="translate(71.46 89.92)">1</text></g></svg>