<svg xmlns="http://www.w3.org/2000/svg" viewBox="0 0 158.95 163.24"><defs><style>.cls-1{fill:#8eb2b2;}.cls-2{fill:#e5e5e5;}.cls-3{fill:#fff;}.cls-4{fill:#c64f3c;}.cls-5{fill:#d3583c;}.cls-6{fill:#63615d;}.cls-7{font-size:15px;}.cls-7,.cls-8{font-family:ArialRoundedMTBold, Arial Rounded MT Bold;}.cls-8{font-size:25px;}</style></defs><g id="Warstwa_2" data-name="Warstwa 2"><path class="cls-1" d="M143.62,81.62a64.7,64.7,0,1,1-6.74-28.78A64.74,64.74,0,0,1,143.62,81.62Z"/><path class="cls-2" d="M111.9,51.44v60.13a5.91,5.91,0,0,1-5.9,5.91H51.77a5.87,5.87,0,0,1-4.86-2.56,5.25,5.25,0,0,1-.51-.89,5.93,5.93,0,0,1-.53-2.46V51.44Z"/><path class="cls-3" d="M111.9,51.44V107.1a5.7,5.7,0,0,1-5.9,5.47H51.77a6,6,0,0,1-4.86-2.37,4.67,4.67,0,0,1-.51-.82,5.16,5.16,0,0,1-.53-2.28V51.44Z"/><rect class="cls-4" x="45.87" y="54.11" width="66.04" height="15.38"/><path class="cls-5" d="M111.9,48.8V65.32h-66V48.8a5.9,5.9,0,0,1,5.9-5.9H106a5.92,5.92,0,0,1,1.41.17,4.76,4.76,0,0,1,.9.3A5.89,5.89,0,0,1,111.9,48.8Z"/><rect class="cls-6" x="61.93" y="35.14" width="5.62" height="13.85" rx="2.51"/><rect class="cls-6" x="76.48" y="35.14" width="5.62" height="13.85" rx="2.51"/><rect class="cls-6" x="91.03" y="35.14" width="5.62" height="13.85" rx="2.51"/><text class="cls-7" transform="translate(50.02 107.24)">MONTH</text><text class="cls-8" transform="translate(70.87 89.92)">1</text></g></svg>