<svg id="Warstwa_1" data-name="Warstwa 1" xmlns="http://www.w3.org/2000/svg" viewBox="0 0 106.32 38"><defs><style>.cls-1{fill:#f8d46a;}.cls-2{fill:#f7e289;}.cls-3{fill:#e2ab5a;}.cls-4{fill:#273c58;}.cls-5{fill:#445382;}.cls-6{font-size:26.87px;fill:#fff;font-family:Helvetica-Bold, Helvetica;font-weight:700;}</style></defs><path class="cls-1" d="M38,19c0,.31,0,.61,0,.92A19,19,0,0,1,26.34,36.53l-.43.17-.66.25A19,19,0,1,1,17.06.1,17.87,17.87,0,0,1,19,0a18.82,18.82,0,0,1,6,1c.3.1.59.2.88.32A19,19,0,0,1,38,19Z"/><path class="cls-2" d="M17.09,37.86l-.09,0A19,19,0,0,1,17.06.1h0a20.32,20.32,0,0,0,0,37.75Z"/><circle class="cls-3" cx="12.76" cy="7.38" r="2.54"/><circle class="cls-3" cx="10.83" cy="30.14" r="2.99"/><circle class="cls-3" cx="3.43" cy="17.43" r="1.5"/><path class="cls-4" d="M38,19c0,.31,0,.61,0,.92A19,19,0,0,1,26.34,36.53l-.43.17-.66.25A19,19,0,0,1,25,1c.3.1.59.2.88.32A19,19,0,0,1,38,19Z"/><path class="cls-4" d="M106.32,8.94V29a8,8,0,0,1-8,8H25.25A19,19,0,0,1,25,1H98.36A8,8,0,0,1,106.32,8.94Z"/><circle class="cls-5" cx="29.57" cy="6.36" r="1.51"/><circle class="cls-5" cx="43.63" cy="33.14" r="2.21"/><circle class="cls-5" cx="67.05" cy="6.36" r="1.25"/><circle class="cls-5" cx="96.04" cy="7.38" r="2.65"/><circle class="cls-5" cx="77" cy="32.18" r="1.25"/><text class="cls-6" transform="translate(25.06 27.15)">a</text><text class="cls-6" transform="translate(42.48 27.15)">l</text><text class="cls-6" transform="translate(51.57 27.15)">m</text><text class="cls-6" transform="translate(77.6 27.15)">l</text><text class="cls-6" transform="translate(87.05 27.15)">y</text></svg>