<svg id="Warstwa_2" data-name="Warstwa 2" xmlns="http://www.w3.org/2000/svg" viewBox="0 0 563.84 488.57"><defs><style>.cls-1{fill:#40596b;}.cls-2{fill:#fff;}.cls-3{fill:#ddd;}.cls-4{fill:#898989;}.cls-5{fill:#e0b79b;}.cls-6{fill:#ba9379;}.cls-7{fill:#dd9b9b;}.cls-8{fill:#aa6868;}.cls-9{fill:#f95555;}.cls-10{fill:#f7b657;}.cls-11{fill:#7ff757;}</style></defs><path class="cls-1" d="M8.26,0H555.57a8.26,8.26,0,0,1,8.26,8.26V383.53a15,15,0,0,1-15,15H15a15,15,0,0,1-15-15V8.26A8.26,8.26,0,0,1,8.26,0Z"/><rect class="cls-2" x="13.18" y="16.16" width="537.47" height="339.99"/><path class="cls-1" d="M0,338.59H563.84a0,0,0,0,1,0,0v44.94a15,15,0,0,1-15,15H15a15,15,0,0,1-15-15V338.59a0,0,0,0,1,0,0Z"/><rect class="cls-1" x="212.07" y="411.28" width="139.7" height="77.29"/><path class="cls-3" d="M71.25,44.07H249.67A4.33,4.33,0,0,1,254,48.4V163.2a7.85,7.85,0,0,1-7.85,7.85H74.77a7.85,7.85,0,0,1-7.85-7.85V48.4A4.33,4.33,0,0,1,71.25,44.07Z"/><path class="cls-4" d="M71.25,43H249.67A4.33,4.33,0,0,1,254,47.35v18.3a0,0,0,0,1,0,0H66.92a0,0,0,0,1,0,0V47.35A4.33,4.33,0,0,1,71.25,43Z"/><path class="cls-5" d="M307.25,44.33H485.67A4.33,4.33,0,0,1,490,48.66v241a7.85,7.85,0,0,1-7.85,7.85H310.78a7.85,7.85,0,0,1-7.85-7.85v-241A4.33,4.33,0,0,1,307.25,44.33Z"/><path class="cls-6" d="M307.25,43.28H485.67A4.33,4.33,0,0,1,490,47.61v18.3a0,0,0,0,1,0,0H302.92a0,0,0,0,1,0,0V47.61A4.33,4.33,0,0,1,307.25,43.28Z"/><path class="cls-7" d="M71.25,186.82H249.67a4.33,4.33,0,0,1,4.33,4.33v98.76a7.85,7.85,0,0,1-7.85,7.85H74.77a7.85,7.85,0,0,1-7.85-7.85V191.15A4.33,4.33,0,0,1,71.25,186.82Z"/><path class="cls-8" d="M71.25,186.82H249.67a4.33,4.33,0,0,1,4.33,4.33v18.3a0,0,0,0,1,0,0H66.92a0,0,0,0,1,0,0v-18.3A4.33,4.33,0,0,1,71.25,186.82Z"/><circle class="cls-9" cx="75.82" cy="52.56" r="3.58"/><circle class="cls-10" cx="86.38" cy="52.56" r="3.58"/><circle class="cls-11" cx="96.94" cy="52.56" r="3.58"/><circle class="cls-9" cx="79.41" cy="197.7" r="3.58"/><circle class="cls-10" cx="89.96" cy="197.7" r="3.58"/><circle class="cls-11" cx="100.52" cy="197.7" r="3.58"/><circle class="cls-9" cx="313.45" cy="54.59" r="3.58"/><circle class="cls-10" cx="324" cy="54.59" r="3.58"/><circle class="cls-11" cx="334.56" cy="54.59" r="3.58"/><rect class="cls-2" x="306.07" y="80.59" width="180.78" height="14.04" rx="3.13"/><rect class="cls-2" x="70.06" y="78.67" width="180.78" height="14.04" rx="3.13"/><rect class="cls-2" x="70.06" y="217.91" width="180.78" height="14.04" rx="3.13"/><rect class="cls-2" x="306.07" y="107.56" width="180.78" height="48.49" rx="3.13"/><rect class="cls-2" x="70.06" y="105.74" width="180.78" height="50.31" rx="3.13"/><rect class="cls-2" x="70.06" y="240.41" width="180.78" height="39.85" rx="3.13"/><rect class="cls-2" x="306.07" y="170.92" width="180.78" height="102.13" rx="3.13"/></svg>