<svg xmlns="http://www.w3.org/2000/svg" viewBox="0 0 341.15 648.84"><defs><style>.cls-1{fill:#fff;}.cls-2{fill:#4e5850;}.cls-3{fill:#c1c6c1;}</style></defs><g id="Warstwa_4" data-name="Warstwa 4"><rect class="cls-1" x="32.37" y="31.61" width="271.06" height="575.31" rx="61.57"/></g><g id="Warstwa_2" data-name="Warstwa 2"><path class="cls-2" d="M256.37,31.61H79.43a47.06,47.06,0,0,0-47.06,47V559.91a47,47,0,0,0,47.06,47H256.37a47,47,0,0,0,47.06-47V78.64A47.06,47.06,0,0,0,256.37,31.61Zm37.27,525.54a41.17,41.17,0,0,1-41.19,41.14H83.31a41.15,41.15,0,0,1-41.14-41.14V81.44A41.17,41.17,0,0,1,83.31,40.25H113.7a5.51,5.51,0,0,1,5.48,5.48v2.84a8.31,8.31,0,0,0,8.32,8.32h80.81a8.31,8.31,0,0,0,8.32-8.32V45.73a5.51,5.51,0,0,1,5.47-5.48h30.35a41.19,41.19,0,0,1,41.19,41.19Z"/></g><g id="Warstwa_3" data-name="Warstwa 3"><circle class="cls-1" cx="128.66" cy="44.45" r="4.2"/><rect class="cls-1" x="145.02" y="36.71" width="44.27" height="3.55" rx="0.44"/></g><g id="Warstwa_5" data-name="Warstwa 5"><rect class="cls-3" x="49.6" y="528.38" width="236.6" height="64.49" rx="32.25"/><circle class="cls-3" cx="151.78" cy="510.84" r="5.48"/><circle class="cls-3" cx="168.21" cy="510.84" r="5.48"/><circle class="cls-3" cx="184.03" cy="510.84" r="5.48"/></g><g id="Warstwa_6" data-name="Warstwa 6"><rect class="cls-2" x="63.05" y="540.07" width="40.3" height="40.3" rx="12"/><rect class="cls-2" x="119.92" y="540.88" width="40.3" height="40.3" rx="12"/><rect class="cls-2" x="173.65" y="540.07" width="40.3" height="40.3" rx="12"/><rect class="cls-2" x="230.96" y="540.07" width="40.3" height="40.3" rx="12"/></g></svg>