<?xml version="1.0" encoding="utf-8"?>
<!-- Generator: Adobe Illustrator 26.0.0, SVG Export Plug-In . SVG Version: 6.00 Build 0)  -->
<svg version="1.1" xmlns="http://www.w3.org/2000/svg" xmlns:xlink="http://www.w3.org/1999/xlink" x="0px" y="0px"
	 viewBox="0 0 816.6 563" style="enable-background:new 0 0 816.6 563;" xml:space="preserve">
<style type="text/css">
	.st0{fill:#15497A;}
	.st1{fill:#022550;}
	.st2{fill:#7DA6B7;}
	.st3{fill:#6A95AA;}
	.st4{fill:#41667C;}
	.st5{fill:#2F526D;}
	.st6{fill:#416687;}
	.st7{fill:#4D6F89;}
	.st8{fill:#89A3BA;}
	.st9{fill:#6F8DA3;}
	.st10{fill:#F2D88F;}
	.st11{fill:#DDA183;}
	.st12{fill:#EAB394;}
	.st13{fill:#FFFFFF;}
	.st14{fill:#D89F88;}
	.st15{fill:#EAB7A4;}
	.st16{fill:#6887A5;}
	.st17{fill:#C3DCEA;}
	.st18{fill:#A7C6DB;}
	.st19{fill:#1E3B4F;}
	.st20{fill:#5B81A9;}
	.st21{fill:#2B5566;}
	.st22{fill:#355872;}
	.st23{fill:#A1BFD1;}
	.st24{fill:#8AAABA;}
	.st25{fill:#525C84;}
	.st26{fill:#394466;}
	.st27{fill:#606C91;}
	.st28{fill:#6D7BA5;}
	.st29{fill:#262F47;}
	.st30{fill:#003665;}
	.st31{fill:#E8E8E8;}
</style>
<g id="background">
	<path class="st0" d="M746.6,563H70c-38.7,0-70-31.3-70-70V70C0,31.3,31.3,0,70,0h676.6c38.7,0,70,31.3,70,70v423
		C816.6,531.6,785.3,563,746.6,563z"/>
</g>
<g id="bedunder">
	<g>
		<path class="st1" d="M740.9,506.9H50c-3.9,0-7.1-3.2-7.1-7.1l0,0c0-3.9,3.2-7.1,7.1-7.1h690.9c3.9,0,7.1,3.2,7.1,7.1l0,0
			C748,503.8,744.8,506.9,740.9,506.9z"/>
		<rect x="606.9" y="432.4" class="st2" width="94.3" height="50.5"/>
		<rect x="600.5" y="431.7" class="st3" width="12.8" height="60.8"/>
		<rect x="707" y="427.3" class="st3" width="11.3" height="65.2"/>
		<rect x="586.1" y="442" class="st4" width="14.3" height="50.5"/>
		<rect x="694.7" y="427.3" class="st4" width="12.8" height="65.2"/>
		<g>
			<circle class="st3" cx="197.2" cy="236.6" r="10.9"/>
			<circle class="st3" cx="304.2" cy="235.2" r="10.2"/>
			<rect x="198.3" y="243.6" class="st3" width="11.7" height="249.2"/>
			<rect x="305.1" y="241.8" class="st3" width="11.7" height="250.9"/>
			<rect x="184.9" y="243.6" class="st4" width="13.4" height="249.2"/>
			<rect x="291.7" y="241.8" class="st4" width="13.4" height="250.9"/>
			<rect x="291.7" y="452.2" class="st5" width="13.4" height="40.5"/>
			<rect x="305.1" y="452.2" class="st6" width="13.4" height="40.5"/>
			<rect x="184.9" y="394.6" class="st5" width="13.4" height="98.1"/>
			<rect x="197.4" y="394.6" class="st6" width="13.4" height="98.1"/>
			<rect x="219.8" y="265" class="st7" width="4.6" height="93.8"/>
			<rect x="239.7" y="265" class="st7" width="4.6" height="94.3"/>
			<rect x="259.5" y="265" class="st7" width="4.6" height="94.8"/>
			<rect x="280" y="265" class="st7" width="4.6" height="95.3"/>
			<rect x="210" y="251.5" class="st3" width="88.4" height="13.4"/>
			<rect x="210" y="353.9" class="st8" width="146.4" height="57.3"/>
			<g>
				<rect x="210" y="411.3" class="st7" width="376.2" height="41"/>
				<rect x="210" y="372.6" class="st9" width="146.4" height="38.6"/>
			</g>
		</g>
	</g>
</g>
<g id="woman">
	<g>
		<path class="st10" d="M333.4,303.7c0,0,27.4,7.2,29.9,19.3l-7.9,4.7l-13.6,3.4h-10.7l-0.9-20.8L333.4,303.7z"/>
		<path class="st11" d="M334.1,308.6c0,0,2.2-22.6-5.5-17.7c0,0-2,0.6-2.1,0.9c-0.2,0.3-0.5,3.8-0.5,3.8l1.6,3.7l1,4.1L334.1,308.6z
			"/>
		<g>
			<path class="st12" d="M334.6,331l1.2,1.2l-5.2,5.2l-0.2-0.2v3.7h-5.6l-2.3,2.4c-7.6,0.2-15.1-4.6-15.1-4.6
				c-1.8-1.2-6.2-6.1-6.2-6.1l-10-15.3l-1.2-11.1l4.1-20.8c0.2,0,6.4-3.2,6.8-3.2c0.5,0,16.8,4.6,16.9,4.6c0.2,0,5.6,9.2,9.8,12.5
				c4.1,3.2,7,8.2,7,8.2C337.5,318.4,334.8,330.3,334.6,331z"/>
		</g>
		<path class="st10" d="M298.7,284c0,0,1.2,17.3-3.5,34c0,0,6.9,17.8,12.1,20.7c0,0-25.9-24.2-47.8-24.2c0,0,2.3-46.6,34-35.1
			c0,0,27.6-12.1,35.1,11.5c0,0-1.7,4.9-1,8.4C327.6,299.3,309.9,284.5,298.7,284z"/>
		<g>
			<path class="st13" d="M323.6,355.7c0,0,4.9,14.5,35.2,5.3l3.8-17.7l-19.5-0.9l-16.1,8.6L323.6,355.7z"/>
			<g>
				<path class="st14" d="M370.2,323.2H363c0,0-12.5,7.1-25,7.8c0,0.2,0,0.3,0,0.5c0,0,0,0,0,0c1.3,2.2,0.7,5.7-1.8,6.8
					c-1.7,0.8-2.8,2.5-4.3,3.9c-2,2-4.2,3.8-6.5,5.4c-2.2,1.5-5.6,0.4-6.8-1.8c-0.6-1-0.8-2-0.6-3c-0.7-0.1-1.5-0.2-2.4-0.4
					c0,0-15.3,14.1-40.8,20c0,0-4,15.3,21.2,8.5c0,0,31-9.8,46.9-23.2l23.1-1.1l6.5-22.5L370.2,323.2z"/>
				<path class="st15" d="M295.2,355.3c0,0,10.2,16,72.7-25.2l1.5-7l-6.1-0.2c0,0-13.7,7.5-28.7,8c0,0-8,8.7-12.3,11.6
					c0,0-3.8,0.7-6.6-0.3"/>
			</g>
		</g>
	</g>
</g>
<g id="Warstwa_7">
	<path class="st16" d="M259.5,314.5c0,0,18.5-2.4,47.8,24.2c0,0,4.5,2.4,8.3,3.7c0,0-14.4,13.9-15,13.9s-25,7-25,7
		s-68,8.9-75.4-48.8c0,0,6.2-19.3,61.5-13L259.5,314.5z"/>
</g>
<g id="bedover">
	<g>
		<path class="st16" d="M356.4,361.5c0,0,7.9-58.2,31.2-41.6c0,0,8,6.4,45.1-7c0,0,36.5-4,57.7,9c0,0,67.6,19.9,133.8,21.4
			c0,0,13,1.2,29.1,11.1c0,0,20.7,7.1,60,5.2c0,0,4.7,0.9,5.9,2.8"/>
		<polygon class="st16" points="349.2,370.3 346.8,387.5 346.8,413.4 348,428.8 370.5,428.8 433.3,434.1 518.1,429.8 596.4,442 
			674.3,430.4 718.3,429.3 709.2,396.5 691.7,380.6 672.1,372.6 628.2,366.5 570.5,366.5 454.5,366.5 358.8,366.5 		"/>
		<path class="st8" d="M713.4,437.6l-4.5-13h-50.7l-49,6.5c-3.9,0.5-8.2,0.9-12.9,0.9c-8.3,0.1-15.6-0.7-21.8-1.8
			c-7.7-2.7-16.5-5.1-26.3-6.9c-20.8-3.8-39-3.3-52.8-1.7c0,0-32.5,8-55.9,7.7c0,0-29.8-7.7-51.6-6.1c0,0-31.5,3.1-39.2,2
			c0,0-3.9-47.4,2.9-52.6c6.7-5.2,0,0,0,0h-11.8v1.9c0,0-5,42.1,0,56.6c0,0,1.2,8.3,9.7,9.3c0,0,59.8-2.8,69.9,0
			c0,0,22.5,4.4,42.1,2c0,0,52.9-11.9,84.2-2.2c8.6,3.1,21.5,6.8,37.4,7.3c3.9,0.1,2.9-0.1,27.7-1.7c23.1-1.5,29.1-1.7,39.9-3.3
			c8.9-1.4,16.1-3,20.5-4.1c13.6-0.2,27.2-0.5,40.7-0.7"/>
		<path class="st17" d="M351.5,372.6h233c0,0,20.5,1.1,21.1,25l4.4,48.3c5.1-0.5,10.4-0.8,16-1c6.9-0.3,13.5-0.3,19.7-0.1
			c4.1,0.2,10.2-0.2,17-2.6c3.1-1.1,5.6-2.5,7.8-3.8c-0.9-15.1-1.9-30.1-2.8-45.2c0,0-3.9-22.8,13.3-10c0,0,18.9,12.8,31.6,54.4
			c0,0,14,0.4,18.8-1.7c0,0,5.1-6.3,2.9-12.9c0,0-0.9-3.2-3-3.9c0,0-0.4-44.4-12.8-57.4l-348.3-1.5
			C370.5,360.3,352.4,362.4,351.5,372.6z"/>
		<path class="st18" d="M356.4,360.3c0,0-14.6,7.7-16.6,12.4h11.8c0,0,11.1-10.6,17.9-12.2c0.4-0.1,0.7-0.1,1-0.2"/>
	</g>
</g>
<g id="cabinet_with_lamp_and_books">
	<g>
		<g>
			<g>
				<rect x="169.3" y="352.3" class="st6" width="5.8" height="140.4"/>
				<rect x="227.3" y="352.3" class="st6" width="5.8" height="140.4"/>
				<rect x="77.3" y="394.6" class="st6" width="5.8" height="98.1"/>
				
					<rect x="180" y="341.6" transform="matrix(-1.836970e-16 1 -1 -1.836970e-16 574.658 172.2956)" class="st6" width="42.3" height="63.7"/>
				<rect x="122.9" y="353.9" class="st5" width="15.9" height="138.8"/>
				<rect x="122.9" y="353.9" class="st19" width="10.2" height="138.8"/>
				<rect x="67.3" y="352.3" class="st20" width="9.9" height="140.4"/>
				<rect x="159.4" y="352.3" class="st20" width="9.9" height="140.4"/>
				<rect x="217.3" y="394.6" class="st20" width="9.9" height="98.1"/>
				<rect x="67.3" y="352.3" class="st20" width="102" height="42.3"/>
			</g>
			<g>
				<rect x="180.6" y="362.2" class="st20" width="45.7" height="22.6"/>
				<rect x="181.8" y="363.2" class="st6" width="43.5" height="20.5"/>
			</g>
			<circle class="st20" cx="192.4" cy="373.5" r="2.9"/>
			<circle class="st20" cx="214.5" cy="373.5" r="2.9"/>
		</g>
		<g>
			<path class="st21" d="M91.2,345v1.6c0,2.8,2.3,5,5,5h45.4c0.1,0,0.2,0.1,0.2,0.2v0.3c0,0.1-0.1,0.2-0.2,0.2H93.7
				c-2.8,0-5-2.3-5-5v-3c0-2.8,2.2-5,5-5h47.9c0.1,0,0.2,0.1,0.2,0.2v0.3c0,0.1-0.1,0.2-0.2,0.2H96.2C93.5,340,91.2,342.2,91.2,345z
				"/>
			<path class="st22" d="M140.1,346.4c0,1.8,0.2,3.6,0.5,5.2H96.2c-2.8,0-5-2.2-5-5V345c0-2.8,2.3-5,5-5h44.7
				C140.4,341.9,140.1,344.1,140.1,346.4z"/>
			<path class="st23" d="M140.1,346.4c0,1.8,0.2,3.6,0.5,5.2H96.2c-2.8,0-5-2.2-5-5V345c0-2.8,2.3-5,5-5h44.7
				C140.4,341.9,140.1,344.1,140.1,346.4z"/>
			<path class="st24" d="M128.3,343h-24c-0.1,0-0.3-0.1-0.3-0.3v-0.2c0-0.1,0.1-0.3,0.3-0.3h24c0.1,0,0.3,0.1,0.3,0.3v0.2
				C128.6,342.9,128.5,343,128.3,343z"/>
			<path class="st24" d="M134.6,346.2H93.2c-0.1,0-0.3-0.1-0.3-0.3v-0.2c0-0.1,0.1-0.3,0.3-0.3h41.4c0.1,0,0.3,0.1,0.3,0.3v0.2
				C134.9,346,134.8,346.2,134.6,346.2z"/>
		</g>
		<path class="st24" d="M132.6,349.2h-32.5c-0.1,0-0.3-0.1-0.3-0.3v-0.2c0-0.1,0.1-0.3,0.3-0.3h32.5c0.1,0,0.3,0.1,0.3,0.3v0.2
			C132.9,349.1,132.7,349.2,132.6,349.2z"/>
		<g>
			<path class="st21" d="M93.4,334.1v1.2c0,2,1.9,3.5,4.2,3.5h37.7c0.1,0,0.2,0.1,0.2,0.1v0.2c0,0.1-0.1,0.1-0.2,0.1H95.4
				c-2.3,0-4.2-1.6-4.2-3.5v-2.1c0-2,1.9-3.5,4.2-3.5h39.9c0.1,0,0.2,0.1,0.2,0.1v0.2c0,0.1-0.1,0.1-0.2,0.1H97.5
				C95.2,330.6,93.4,332.2,93.4,334.1z"/>
			<path class="st22" d="M134,335.1c0,1.3,0.1,2.5,0.4,3.7H97.5c-2.3,0-4.2-1.6-4.2-3.5v-1.2c0-2,1.9-3.5,4.2-3.5h37.1
				C134.3,331.9,134,333.5,134,335.1z"/>
			<path class="st23" d="M134,335.1c0,1.3,0.1,2.5,0.4,3.7H97.5c-2.3,0-4.2-1.6-4.2-3.5v-1.2c0-2,1.9-3.5,4.2-3.5h37.1
				C134.3,331.9,134,333.5,134,335.1z"/>
			<path class="st24" d="M124.3,332.7h-20.2c-0.1,0-0.1-0.1-0.1-0.1v-0.2c0-0.1,0.1-0.1,0.1-0.1h20.2c0.1,0,0.1,0.1,0.1,0.1v0.2
				C124.4,332.7,124.4,332.7,124.3,332.7z"/>
			<path class="st24" d="M129.5,334.9H94.9c-0.1,0-0.1-0.1-0.1-0.1v-0.2c0-0.1,0.1-0.1,0.1-0.1h34.6c0.1,0,0.1,0.1,0.1,0.1v0.2
				C129.7,334.9,129.6,334.9,129.5,334.9z"/>
		</g>
		<path class="st24" d="M127.8,337.1h-27.2c-0.1,0-0.1-0.1-0.1-0.1v-0.2c0-0.1,0.1-0.1,0.1-0.1h27.2c0.1,0,0.1,0.1,0.1,0.1v0.2
			C128,337,127.9,337.1,127.8,337.1z"/>
		<g>
			<path class="st21" d="M104.1,325.2v1.1c0,1.8,1.5,3.3,3.3,3.3h30c0.1,0,0.1,0.1,0.1,0.1v0.2c0,0.1-0.1,0.1-0.1,0.1h-31.7
				c-1.8,0-3.3-1.5-3.3-3.3v-2c0-1.8,1.5-3.3,3.3-3.3h31.7c0.1,0,0.1,0.1,0.1,0.1v0.2c0,0.1-0.1,0.1-0.1,0.1h-30
				C105.6,321.9,104.1,323.4,104.1,325.2z"/>
			<path class="st22" d="M136.4,326.2c0,1.2,0.1,2.4,0.3,3.4h-29.4c-1.8,0-3.3-1.5-3.3-3.3v-1.1c0-1.8,1.5-3.3,3.3-3.3H137
				C136.6,323.2,136.4,324.7,136.4,326.2z"/>
			<path class="st23" d="M136.4,326.2c0,1.2,0.1,2.4,0.3,3.4h-29.4c-1.8,0-3.3-1.5-3.3-3.3v-1.1c0-1.8,1.5-3.3,3.3-3.3H137
				C136.6,323.2,136.4,324.7,136.4,326.2z"/>
			<path class="st24" d="M128.6,323.9h-15.9c-0.1,0-0.2-0.1-0.2-0.2v-0.1c0-0.1,0.1-0.2,0.2-0.2h15.9c0.1,0,0.2,0.1,0.2,0.2v0.1
				C128.8,323.9,128.7,323.9,128.6,323.9z"/>
			<path class="st24" d="M132.8,326h-27.4c-0.1,0-0.2-0.1-0.2-0.2v-0.1c0-0.1,0.1-0.2,0.2-0.2h27.4c0.1,0,0.2,0.1,0.2,0.2v0.1
				C133,325.9,132.9,326,132.8,326z"/>
		</g>
		<path class="st24" d="M131.5,328h-21.5c-0.1,0-0.2-0.1-0.2-0.2v-0.1c0-0.1,0.1-0.2,0.2-0.2h21.5c0.1,0,0.2,0.1,0.2,0.2v0.1
			C131.6,328,131.5,328,131.5,328z"/>
		<g>
			<path class="st21" d="M124.2,278.1v12.2h-5.9v-12.2c0-1.8,1.3-3.3,2.9-3.3c0.8,0,1.5,0.4,2.1,1
				C123.9,276.4,124.2,277.2,124.2,278.1z"/>
			<path class="st20" d="M124.2,278.1v12.2h-2.9v-15.5c0.8,0,1.5,0.4,2.1,1C123.9,276.4,124.2,277.2,124.2,278.1z"/>
			<path class="st6" d="M134.9,321.5h-27.1c-1.5,0-2.6-1.6-2.2-3.2l7.2-30.7c0.3-1.1,1.2-1.9,2.2-1.9h12.8c1,0,1.9,0.8,2.2,1.9
				l7.2,30.7C137.4,319.9,136.4,321.5,134.9,321.5z"/>
			<path class="st20" d="M134.9,321.5h-13.6v-35.9h6.4c1,0,1.9,0.8,2.2,1.9l7.2,30.7C137.4,319.9,136.4,321.5,134.9,321.5z"/>
			<path class="st24" d="M146.3,279.3H96.3c-1.2,0-1.9-1.5-1.3-2.6l20.3-38.2h12l20.3,38.2C148.2,277.8,147.4,279.3,146.3,279.3z"/>
			<path class="st4" d="M121.3,238.5v40.8h-25c-1.2,0-1.9-1.5-1.3-2.6l20.3-38.2H121.3z"/>
		</g>
	</g>
</g>
<g id="dog">
	<g>
		<path class="st1" d="M741.6,540.2h-156c-3.5,0-6.4-2.9-6.4-6.4l0,0c0-3.5,2.9-6.4,6.4-6.4h156c3.5,0,6.4,2.9,6.4,6.4l0,0
			C748,537.3,745.1,540.2,741.6,540.2z"/>
		<g>
			<path class="st25" d="M651.4,467c-6.9,3.3-26.7,14.6-36.2,40.6c-1.7,4.6,1.3,9.6,5.8,9.6h65.4c4.6,0,7.6-5.3,5.7-9.8
				c-5-11.9-15.9-31.3-36-40.4C654.6,466.2,652.9,466.3,651.4,467z"/>
			<path class="st26" d="M721.7,498.4h9.3c1.5,0,2.7,1.2,2.7,2.7v23.1h-14.6v-23.1C719.1,499.6,720.3,498.4,721.7,498.4z"/>
			<path class="st27" d="M718.9,533.3h-58.4c-4.9,0-9-4-9-9v-14.4c0-4.9,4-9,9-9h58.4c5.4,0,9.8,4.4,9.8,9.8v12.7
				C728.7,528.9,724.3,533.3,718.9,533.3z"/>
			<path class="st28" d="M738.9,533.3h-54v-11c0-2.6,2.1-4.8,4.8-4.8h44.5c2.6,0,4.8,2.1,4.8,4.8V533.3z"/>
			<path class="st28" d="M664.6,533.3h-71.8v-18.9c0-3.2,2.6-5.8,5.8-5.8h60.1c3.2,0,5.8,2.6,5.8,5.8V533.3z"/>
			<path class="st29" d="M733.7,527.4h-17.2V523c0-1.1,0.9-2,2-2h13.1c1.1,0,2,0.9,2,2V527.4z"/>
			<path class="st26" d="M695.6,510.2c-0.4,2.6-2.7,4.6-5.4,4.6c-2.7,0-5-2-5.4-4.6h1.6c0.4,1.7,2,3,3.8,3c1.9,0,3.4-1.3,3.8-3
				H695.6z"/>
			<path class="st26" d="M716.5,510.2c-0.4,2.6-2.7,4.6-5.4,4.6c-2.7,0-5-2-5.4-4.6h1.6c0.4,1.7,2,3,3.8,3c1.9,0,3.4-1.3,3.8-3
				H716.5z"/>
			<path class="st26" d="M675.2,526.7h-6.8c-1.5,0-2.7-1.2-2.7-2.7V501h12.1V524C677.8,525.5,676.7,526.7,675.2,526.7z"/>
		</g>
	</g>
</g>
<g id="window">
	<g>
		<rect x="505.1" y="56.3" class="st30" width="178" height="204.9"/>
		<g>
			<circle class="st13" cx="550.5" cy="115.9" r="2.7"/>
			<circle class="st13" cx="551.4" cy="207.4" r="3.6"/>
			<circle class="st13" cx="643.1" cy="177" r="3.6"/>
			<circle class="st13" cx="620.3" cy="113.2" r="28.2"/>
			<circle class="st31" cx="604.8" cy="105.5" r="4.2"/>
			<circle class="st31" cx="613.2" cy="124.7" r="6.2"/>
			<circle class="st31" cx="639.5" cy="105.5" r="3.6"/>
		</g>
		<rect x="496.1" y="56.3" class="st25" width="209.1" height="15.2"/>
		<rect x="495.8" y="245.9" class="st28" width="209.1" height="15.2"/>
		
			<rect x="477.8" y="159.8" transform="matrix(-1.836970e-16 1 -1 -1.836970e-16 738.9702 -406.2548)" class="st28" width="189.7" height="13.1"/>
		
			<rect x="532" y="159.8" transform="matrix(-1.836970e-16 1 -1 -1.836970e-16 793.2382 -460.5228)" class="st28" width="189.7" height="13.1"/>
		
			<rect x="420.1" y="159.8" transform="matrix(-1.836970e-16 1 -1 -1.836970e-16 681.3442 -348.6287)" class="st28" width="189.7" height="13.1"/>
		
			<rect x="588.3" y="155.1" transform="matrix(-1.836970e-16 1 -1 -1.836970e-16 844.7998 -521.4269)" class="st28" width="189.7" height="13.1"/>
		
			<rect x="510.3" y="155.1" transform="matrix(-1 -1.224647e-16 1.224647e-16 -1 1210.2609 318.2141)" class="st28" width="189.7" height="7.9"/>
		<path class="st25" d="M538,119.2c-6,30.8-15.9,57.3-26.3,73.2c2,6.4,3.9,13,5.5,19.9c2.8,11.7,4.8,23,6.1,33.6
			c0.6,5.3,1.1,10.4,1.3,15.2H494V56.3h48.8C544,73.7,542.6,95.7,538,119.2z"/>
		<path class="st25" d="M706.9,56.3v204.9h-33.5c0.2-4.9,0.6-10,1.3-15.2c1.3-10.9,3.3-22.6,6.2-34.6c1.9-7.8,4-15.4,6.3-22.5
			c-9.9-16.1-19.1-41.4-24.7-70.6c-4.5-23-6-44.7-4.9-61.9H706.9z"/>
	</g>
</g>
</svg>
