<svg xmlns="http://www.w3.org/2000/svg" viewBox="0 0 604.09 309.24"><defs><style>.cls-1{fill:#f2dd19;}.cls-2{fill:#bc8282;}.cls-3{fill:#a86f6f;}.cls-4{fill:#ad9782;}.cls-5{fill:#8e7561;}.cls-6{fill:#77b0c9;}.cls-7{fill:#386d7f;}.cls-8{fill:#ea6363;}.cls-19,.cls-22,.cls-23,.cls-24,.cls-25,.cls-9{fill:#fff;}.cls-10{fill:#e2e2e2;}.cls-11{fill:#edac2b;}.cls-12{fill:#edb65f;}.cls-13{fill:#a86131;}.cls-14{fill:#e59153;}.cls-15{fill:#6caa44;}.cls-16{fill:#5c9934;}.cls-17{fill:#e5af38;}.cls-18{fill:#c67c4a;}.cls-19{opacity:0.2;}.cls-20{fill:#64aff9;}.cls-21{fill:#89c6f7;}.cls-22{font-size:9px;}.cls-22,.cls-23,.cls-24,.cls-25{font-family:Helvetica-Bold, Helvetica;font-weight:700;}.cls-23{font-size:6.59px;}.cls-24{font-size:4.8px;}.cls-25{font-size:16.28px;}.cls-26{fill:#d3d3d3;}.cls-27{fill:#ddd;}.cls-28{fill:#e58cb6;}.cls-29{fill:#b7b7b7;}</style></defs><g id="Warstwa_5" data-name="Warstwa 5"><rect class="cls-1" y="300.15" width="604.09" height="9.09" rx="4.54"/></g><g id="bed"><rect class="cls-2" x="130.31" y="244.07" width="13.94" height="56.09"/><rect class="cls-2" x="277.2" y="244.07" width="13.67" height="56.09"/><rect class="cls-3" x="445.17" y="244.07" width="14.2" height="56.09"/><rect class="cls-3" x="301.01" y="244.07" width="13.9" height="56.09"/><path class="cls-2" d="M140.31,227.83H290.87a0,0,0,0,1,0,0v16.23a0,0,0,0,1,0,0H130.31a0,0,0,0,1,0,0v-6.23A10,10,0,0,1,140.31,227.83Z"/><path class="cls-3" d="M290.87,227.83H449.38a10,10,0,0,1,10,10v6.23a0,0,0,0,1,0,0H290.87a0,0,0,0,1,0,0V227.83A0,0,0,0,1,290.87,227.83Z"/><rect class="cls-3" x="301.01" y="144.15" width="158.37" height="96.12"/><ellipse class="cls-3" cx="383.51" cy="144.15" rx="52.9" ry="26.95"/><circle class="cls-3" cx="307.45" cy="139.72" r="6.45"/><circle class="cls-3" cx="452.93" cy="139.72" r="6.45"/></g><g id="Warstwa_7" data-name="Warstwa 7"><rect class="cls-4" x="442.03" y="263.99" width="19.47" height="36.16"/><path class="cls-4" d="M493.59,227.83h21.33a10,10,0,0,1,10,10v62.32a0,0,0,0,1,0,0H493.59a0,0,0,0,1,0,0V227.83A0,0,0,0,1,493.59,227.83Z"/><path class="cls-4" d="M496.83,236.55v24.08a2.51,2.51,0,0,1-2.5,2.5H446a2.51,2.51,0,0,1-2.5-2.5V236.55a2.51,2.51,0,0,1,2.5-2.5h48.29A2.51,2.51,0,0,1,496.83,236.55Z"/><path class="cls-5" d="M493.37,227.83h-47a10,10,0,0,0-10,10v62.32H448V268.37H492.8v31.78h10.57V237.83A10,10,0,0,0,493.37,227.83Zm3.45,32.8a2.51,2.51,0,0,1-2.5,2.5H446a2.51,2.51,0,0,1-2.5-2.5V236.55a2.51,2.51,0,0,1,2.5-2.5h48.29a2.51,2.51,0,0,1,2.5,2.5Z"/><circle class="cls-5" cx="458.04" cy="249.46" r="2.88"/><circle class="cls-5" cx="477.15" cy="249.46" r="2.88"/></g><g id="Warstwa_8" data-name="Warstwa 8"><rect class="cls-6" x="460.92" y="214.27" width="35.9" height="13.56" rx="3.58"/><rect class="cls-7" x="464.16" y="216.24" width="29.44" height="9.62" rx="3.58"/><rect class="cls-8" x="477.15" y="218.63" width="2.53" height="1.99" rx="1"/><rect class="cls-8" x="477.26" y="221.5" width="2.53" height="1.99" rx="1"/><rect class="cls-8" x="471.19" y="218.68" width="3.3" height="0.86" rx="0.43" transform="translate(691.95 -253.73) rotate(90)"/><rect class="cls-8" x="473.26" y="218.68" width="3.3" height="0.86" rx="0.43" transform="translate(694.02 -255.8) rotate(90)"/><rect class="cls-8" x="471.19" y="222.21" width="3.3" height="0.86" rx="0.43" transform="translate(695.48 -250.2) rotate(90)"/><rect class="cls-8" x="473.26" y="222.18" width="3.3" height="0.86" rx="0.43" transform="translate(697.52 -252.3) rotate(90)"/><rect class="cls-8" x="480.3" y="218.68" width="3.3" height="0.86" rx="0.43" transform="translate(701.06 -262.84) rotate(90)"/><rect class="cls-8" x="482.38" y="218.68" width="3.3" height="0.86" rx="0.43" transform="translate(703.14 -264.91) rotate(90)"/><rect class="cls-8" x="480.3" y="222.21" width="3.3" height="0.86" rx="0.43" transform="translate(704.59 -259.32) rotate(90)"/><rect class="cls-8" x="482.38" y="222.18" width="3.3" height="0.86" rx="0.43" transform="translate(706.63 -261.41) rotate(90)"/></g><g id="pillows_etc" data-name="pillows etc"><rect class="cls-9" x="324.21" y="175.92" width="97.38" height="19.45" rx="5.9"/><rect class="cls-10" x="377.82" y="175.92" width="43.78" height="19.45" rx="5.9"/><path class="cls-10" d="M398,190.54h37.16a10,10,0,0,1,10,10v17.29a10,10,0,0,1-10,10H398a0,0,0,0,1,0,0V190.54A0,0,0,0,1,398,190.54Z"/><path class="cls-11" d="M281.6,190.54H398a10,10,0,0,1,10,10v17.29a10,10,0,0,1-10,10H281.6a0,0,0,0,1,0,0V190.54A0,0,0,0,1,281.6,190.54Z"/><path class="cls-12" d="M145.32,190.54H280.87a10,10,0,0,1,10,10v27.29a0,0,0,0,1,0,0H145.32a10,10,0,0,1-10-10V200.54A10,10,0,0,1,145.32,190.54Z"/></g><g id="tree"><rect class="cls-13" x="49.9" y="180.58" width="3.25" height="76.76"/><path class="cls-14" d="M80.34,259.41a3.74,3.74,0,0,1-3.72,3.72H73.1l-5.62,37H35.85l-5.84-37H26.47a3.74,3.74,0,0,1-3.73-3.72,3.76,3.76,0,0,1,3.73-3.73H76.62A3.73,3.73,0,0,1,80.34,259.41Z"/><path class="cls-15" d="M87.31,200.17A23.45,23.45,0,0,1,53.15,221c-.56-.28-1.1-.59-1.63-.92s-1.1-.71-1.62-1.11c-.35-.25-.69-.52-1-.8a23.64,23.64,0,0,1-6-7.54,23.27,23.27,0,0,1-2.37-8.34c0-.36-.06-.72-.07-1.08s0-.71,0-1.06v-.1a23.25,23.25,0,0,1,4.86-14.19c.23-.3.46-.59.71-.88a22.37,22.37,0,0,1,2.57-2.58c.23-.21.47-.41.71-.59l.63-.49c.35-.27.72-.52,1.09-.76.17-.12.35-.23.53-.34s.44-.27.66-.39a20.69,20.69,0,0,1,2.49-1.25l.17-.07c.5-.22,1-.41,1.54-.58A23.15,23.15,0,0,1,63,176.74l.85,0a23.27,23.27,0,0,1,11,2.74,21.8,21.8,0,0,1,2.68,1.67A23.38,23.38,0,0,1,87.31,200.17Z"/><path class="cls-15" d="M48.6,183.65c0,.28,0,.56,0,.84a20.31,20.31,0,0,1-2.7,9.37,18.09,18.09,0,0,1-1.32,2,21,21,0,0,1-4.14,4.18c-.2.15-.4.3-.61.43a13,13,0,0,1-1.1.72A20.16,20.16,0,0,1,31.1,204a20.6,20.6,0,0,1-3.06.23,20,20,0,0,1-4.61-.53,20.55,20.55,0,0,1,1.27-40.31,19.3,19.3,0,0,1,3.34-.28h.16A20.52,20.52,0,0,1,43.38,170h0c.22.24.43.49.63.74a20.08,20.08,0,0,1,3,5.09,18.94,18.94,0,0,1,.87,2.57,18.12,18.12,0,0,1,.61,3.63,2,2,0,0,1,0,.42C48.59,182.83,48.6,183.24,48.6,183.65Z"/><path class="cls-15" d="M63.87,198.4a20.55,20.55,0,0,1-10.72,18c-.53.29-1.07.56-1.63.8s-1.07.44-1.62.62c-.34.12-.68.23-1,.32a20.56,20.56,0,0,1-19-35.33,21.7,21.7,0,0,1,2.09-1.59l.47-.29a19.44,19.44,0,0,1,3-1.57,20.6,20.6,0,0,1,4.58-1.3,20.22,20.22,0,0,1,3.33-.27h.14a21,21,0,0,1,8.08,1.71l.66.3c.3.14.6.3.9.46l.34.19a20.49,20.49,0,0,1,6.48,5.77,19.4,19.4,0,0,1,2.42,4.31q.13.3.24.6a17.18,17.18,0,0,1,.61,1.88,17.85,17.85,0,0,1,.51,2.64,9.37,9.37,0,0,1,.13,1.2Q63.87,197.64,63.87,198.4Z"/><circle class="cls-16" cx="44.97" cy="193.22" r="17.55"/><circle class="cls-15" cx="48.6" cy="186.73" r="17.55"/><circle class="cls-16" cx="57.36" cy="180.58" r="17.55"/><circle class="cls-15" cx="60.86" cy="175.67" r="17.55"/><path class="cls-16" d="M57.35,169.66a15.44,15.44,0,0,1-.1,1.81,16.68,16.68,0,0,1-2.41,7.06l-.08.13c-.23.37-.48.74-.74,1.09s-.39.51-.6.75a2.61,2.61,0,0,1-.27.31,14.66,14.66,0,0,1-1.63,1.62,15.26,15.26,0,0,1-1.62,1.26,15,15,0,0,1-1.32.8,15.25,15.25,0,0,1-2.25,1c-.34.14-.69.25-1,.36a16.61,16.61,0,0,1-4.43.7h-.43a16.86,16.86,0,0,1-9.14-2.68c-.28-.18-.56-.37-.83-.57s-.42-.31-.62-.48a16.91,16.91,0,0,1,1.57-27.52s0,0,0,0a16.91,16.91,0,0,1,20.12,1.56A16.44,16.44,0,0,1,54,159.51a16.73,16.73,0,0,1,3.38,10.15Z"/><path class="cls-15" d="M61.89,165.46A16.88,16.88,0,0,1,56.38,178a14.45,14.45,0,0,1-1.2,1,11.38,11.38,0,0,1-1.16.8c-.3.2-.62.39-.94.56a5.12,5.12,0,0,1-.52.27,9.79,9.79,0,0,1-1,.48,15.68,15.68,0,0,1-1.62.59l-.63.18-.75.17a16.74,16.74,0,0,1-3.56.38h-.33a16.92,16.92,0,0,1-4.8-.78,16.53,16.53,0,0,1-4.44-2.18c-.22-.14-.44-.3-.65-.46A16.87,16.87,0,0,1,28,165.46a18.62,18.62,0,0,1,.16-2.37,16.81,16.81,0,0,1,3.2-7.75s0,0,0,0a16.93,16.93,0,0,1,28.82,2.79,16.58,16.58,0,0,1,1.56,5.47A14.45,14.45,0,0,1,61.89,165.46Z"/><path class="cls-17" d="M68,187.29a4.1,4.1,0,1,1-5.69-3.77,1.73,1.73,0,0,1,1.47-1,1.69,1.69,0,0,1,1.4.83A4.08,4.08,0,0,1,68,187.29Z"/><path class="cls-17" d="M20.15,192.34A2.81,2.81,0,1,1,17,188.91a1.2,1.2,0,0,1,1.14-.39,1.13,1.13,0,0,1,.79.78A2.79,2.79,0,0,1,20.15,192.34Z"/><path class="cls-17" d="M42.06,171.94a2.81,2.81,0,1,1-4-2.41,1.16,1.16,0,0,1,1-.69,1.14,1.14,0,0,1,1,.52A2.79,2.79,0,0,1,42.06,171.94Z"/><path class="cls-17" d="M73.52,209.68a3.38,3.38,0,1,1-6.75.31,3.35,3.35,0,0,1,1.92-3.2,1.42,1.42,0,0,1,1.17-.84,1.39,1.39,0,0,1,1.19.63A3.38,3.38,0,0,1,73.52,209.68Z"/><path class="cls-17" d="M46,199a3.38,3.38,0,1,1-4.39-3.52,1.44,1.44,0,0,1,1.28-.68,1.42,1.42,0,0,1,1.09.79A3.36,3.36,0,0,1,46,199Z"/><rect class="cls-18" x="22.74" y="255.68" width="57.56" height="7.43" rx="3.72"/><path class="cls-19" d="M51.52,149.85v150.3H35.85l-5.84-37H26.47a3.74,3.74,0,0,1-3.73-3.72,3.76,3.76,0,0,1,3.73-3.73H49.9V219c-.35-.25-.69-.52-1-.8a20.56,20.56,0,0,1-25.44-14.51,20.55,20.55,0,0,1,1.27-40.31,16.86,16.86,0,0,1,6.7-8s0,0,0,0a16.93,16.93,0,0,1,20.12-5.48Z"/></g><g id="cloud"><path class="cls-20" d="M191.61,43.61c-.37.6-.71,1.21-1,1.84A8.24,8.24,0,0,1,191.61,43.61Z"/><path class="cls-21" d="M215.39,52.17c0,19.2-18.08,34.77-40.39,34.77a45.42,45.42,0,0,1-19.92-4.51,45.34,45.34,0,0,1-20.48,4.79,44.4,44.4,0,0,1-25.35-7.71,31.33,31.33,0,0,1-15,3.75C78.65,83.26,66,72.4,66,59a21.19,21.19,0,0,1,2.26-9.52c.3-.61.63-1.2,1-1.78a26.31,26.31,0,0,1,10.5-9.53q0-.52,0-1c0-13.4,12.61-24.25,28.16-24.25a31.74,31.74,0,0,1,6.38.63c7.39-8.22,19-13.51,32-13.51a43.65,43.65,0,0,1,28.95,10.54c.26,0,.52,0,.78,0,12.31,0,22.78,6.8,26.6,16.28C210.47,33.14,215.39,42.16,215.39,52.17Z"/><circle class="cls-21" cx="173.23" cy="144.15" r="4.38"/><circle class="cls-21" cx="161.4" cy="127.69" r="5.58"/><circle class="cls-21" cx="154.47" cy="108.78" r="6.93"/></g><g id="Warstwa_9" data-name="Warstwa 9"><text class="cls-22" transform="matrix(0.84, -0.55, 0.55, 0.84, 87.31, 49.21)">Stage 1/N1</text><text class="cls-23" transform="matrix(0.89, 0.45, -0.45, 0.89, 171.33, 39.01)">Stage 2/N2</text><text class="cls-24" transform="matrix(1, 0.06, -0.06, 1, 104.28, 66.86)">Stage 3/N3</text><text class="cls-25" transform="translate(122.85 54.12)">REM</text></g><g id="cat"><rect class="cls-26" x="153.05" y="184.65" width="45.94" height="5.89" rx="2.95"/><path class="cls-26" d="M181.65,162.91h58.28a19.31,19.31,0,0,1,19.31,19.31v8.33a0,0,0,0,1,0,0H181.65a0,0,0,0,1,0,0V162.91A0,0,0,0,1,181.65,162.91Z"/><path class="cls-26" d="M207.11,155.87l.95,17.33-19-9.61,14.52-9.5A2.28,2.28,0,0,1,207.11,155.87Z"/><path class="cls-26" d="M170.42,155.2l-1,17.32,19-9.61-14.53-9.49A2.27,2.27,0,0,0,170.42,155.2Z"/><path class="cls-27" d="M169,170.49l-.72.9a11.8,11.8,0,0,0,9.24,19.15h23.16a11.8,11.8,0,0,0,9.24-19.15l-.72-.9A25.68,25.68,0,0,0,169,170.49Z"/><rect class="cls-9" x="176.18" y="180.58" width="23.11" height="9.96" rx="4.98"/><path class="cls-26" d="M190.73,186.29a2.13,2.13,0,0,1-3.89,1.21,2.13,2.13,0,0,1-3.89-1.16v-.11a.6.6,0,0,1,.6-.53.59.59,0,0,1,.59.59.94.94,0,0,0,1.88.1v-2.9a.8.8,0,0,1,.79-.79h.07a.8.8,0,0,1,.79.79v3a.94.94,0,0,0,1.87-.19.6.6,0,0,1,1.19,0Z"/><path class="cls-28" d="M188.16,184.1l2.16-2.95a.36.36,0,0,0-.29-.57h-6.38a.36.36,0,0,0-.29.57l2.16,2.95A1.64,1.64,0,0,0,188.16,184.1Z"/><path class="cls-26" d="M186.85,175.12v.14a.07.07,0,0,1,0,.06,1.51,1.51,0,0,1-1.53,1.4,1.53,1.53,0,0,1-1.54-1.53,2.45,2.45,0,1,0-4.89,0,1.54,1.54,0,0,1-3.08,0,5.52,5.52,0,0,1,11-.13A.07.07,0,0,1,186.85,175.12Z"/><path class="cls-26" d="M202.38,175.12v.14a.07.07,0,0,1,0,.06,1.51,1.51,0,0,1-1.53,1.4,1.53,1.53,0,0,1-1.54-1.53,2.45,2.45,0,1,0-4.89,0,1.54,1.54,0,0,1-3.08,0,5.52,5.52,0,0,1,11-.13A.07.07,0,0,1,202.38,175.12Z"/><circle class="cls-27" cx="179.23" cy="185.21" r="0.56"/><circle class="cls-27" cx="181.85" cy="184.78" r="0.56"/><circle class="cls-27" cx="193.71" cy="187.29" r="0.56"/><circle class="cls-27" cx="181.28" cy="187.29" r="0.56"/><circle class="cls-27" cx="192.41" cy="184.65" r="0.56"/><circle class="cls-27" cx="195.26" cy="184.21" r="0.56"/><rect class="cls-26" x="240.36" y="184.65" width="45.94" height="5.89" rx="2.95"/><path class="cls-29" d="M257,178.94a11.59,11.59,0,0,1-9.93,11.46,5.81,5.81,0,0,1-1.27.14H221.91l-.44,0H193.65c-1.21,0-2.2-1.33-2.2-2.94v-1c0-1.61,1-2.94,2.2-2.94H223a12.16,12.16,0,0,0,11.29-7.75,8.78,8.78,0,0,0,.37-1.13A11.58,11.58,0,0,1,257,178.94Z"/></g></svg>