<svg xmlns="http://www.w3.org/2000/svg" viewBox="0 0 330.37 595.06"><defs><style>.cls-1{fill:#898989;}.cls-2{fill:#e02d2d;}.cls-3{fill:#d22cdb;}.cls-4{fill:#2cdbce;}.cls-5{fill:#dd2c2c;}.cls-6{fill:#ef7029;}.cls-7{fill:#f70808;}.cls-8{fill:#3e48f7;}.cls-9{fill:#db2cc2;}.cls-10{fill:#db2c83;}.cls-11{fill:#f4cc22;}.cls-12{fill:#dff731;}.cls-13{fill:#f98c1e;}.cls-14{fill:#2c88db;}.cls-15{fill:#abe01b;}.cls-16{fill:#f2d338;}</style></defs><g id="Warstwa_2" data-name="Warstwa 2"><path class="cls-1" d="M285.56,227.7V402.92a60.3,60.3,0,0,1-60.31,60.31H97.17A60.29,60.29,0,0,1,36.9,402.92V227.7a60.29,60.29,0,0,1,60.27-60.31H225.25A60.3,60.3,0,0,1,285.56,227.7Z"/><path d="M285.56,227.7V402.92a60.3,60.3,0,0,1-60.31,60.31H97.17A60.29,60.29,0,0,1,36.9,402.92V227.7a60.29,60.29,0,0,1,60.27-60.31H225.25A60.3,60.3,0,0,1,285.56,227.7Z"/><rect class="cls-2" x="289" y="227.58" width="17.03" height="51.74"/><path class="cls-1" d="M90.73,535.71v1.8h.19A7.35,7.35,0,0,1,90.73,535.71Zm140.81,1.8h.18v-1.8A7.86,7.86,0,0,1,231.54,537.51Z"/><path class="cls-1" d="M231.54,93.15a7.86,7.86,0,0,1,.18,1.8v-1.8ZM90.73,95a7.35,7.35,0,0,1,.19-1.8h-.19Z"/><path class="cls-2" d="M255.4,162.43a32.43,32.43,0,0,1-4-1.73,35.65,35.65,0,0,1-19.71-31.88V95a7.86,7.86,0,0,0-.18-1.8c-1.07-6.25-7.84-12-18.35-16.33-12.87-5.37-31.41-8.71-52-8.71s-39.09,3.34-52,8.71C98.71,81.2,92,86.9,90.92,93.15a7.35,7.35,0,0,0-.19,1.8v33.87A35.63,35.63,0,0,1,71,160.7a31.77,31.77,0,0,1-4,1.73A71.42,71.42,0,0,0,26.12,227V403.62a71.42,71.42,0,0,0,41.19,64.72h0a34.76,34.76,0,0,1,3.56,1.54,35.66,35.66,0,0,1,19.82,32v33.87a7.35,7.35,0,0,0,.19,1.8c1.06,6.25,7.79,12,18.31,16.33,12.91,5.33,31.4,8.67,52,8.67s39.09-3.34,52-8.67c10.51-4.38,17.28-10.08,18.35-16.33a7.86,7.86,0,0,0,.18-1.8V501.84a35.66,35.66,0,0,1,19.82-32,34.92,34.92,0,0,1,3.57-1.54h0a71.43,71.43,0,0,0,41.15-64.72V227A71.36,71.36,0,0,0,255.4,162.43Zm30.15,240.49a60.29,60.29,0,0,1-60.3,60.31H97.17A60.29,60.29,0,0,1,36.9,402.92V227.7a60.29,60.29,0,0,1,60.27-60.31H225.25a60.29,60.29,0,0,1,60.3,60.31Z"/></g><g id="Warstwa_3" data-name="Warstwa 3"><circle class="cls-3" cx="119.25" cy="268.46" r="21.7"/><circle class="cls-4" cx="157.96" cy="308.31" r="21.7"/><circle class="cls-5" cx="103.89" cy="321.48" r="21.7"/><circle class="cls-6" cx="238.54" cy="250.29" r="21.7"/><circle class="cls-7" cx="216.83" cy="299.78" r="21.7"/><circle class="cls-7" cx="238.35" cy="395.95" r="21.7"/><circle class="cls-8" cx="141.16" cy="364.88" r="21.7"/><circle class="cls-9" cx="179.66" cy="407.75" r="21.7"/><circle class="cls-10" cx="125.59" cy="417.65" r="21.7"/><circle class="cls-11" cx="82.19" cy="374.5" r="21.7"/><circle class="cls-12" cx="195.13" cy="351.71" r="21.7"/><circle class="cls-13" cx="82.19" cy="228.59" r="21.7"/><circle class="cls-14" cx="141.16" cy="215.31" r="21.7"/><circle class="cls-15" cx="200.63" cy="198.78" r="21.7"/><circle class="cls-16" cx="179.66" cy="256.37" r="21.7"/></g></svg>